<svg xmlns="http://www.w3.org/2000/svg" width="15" height="15" fill="none"><path fill="currentColor" fill-rule="evenodd" d="M1 13.25h13v1.5H1z" clip-rule="evenodd"/><rect width="1" height="1" x="7" y="5" fill="currentColor" rx=".5"/><rect width="1" height="1" x="13" y="5" fill="currentColor" rx=".5"/><rect width="1" height="1" x="7" y="3" fill="currentColor" rx=".5"/><rect width="1" height="1" x="13" y="3" fill="currentColor" rx=".5"/><rect width="1" height="1" x="7" y="7" fill="currentColor" rx=".5"/><rect width="1" height="1" x="7" y="1" fill="currentColor" rx=".5"/><rect width="1" height="1" x="13" y="7" fill="currentColor" rx=".5"/><rect width="1" height="1" x="13" y="1" fill="currentColor" rx=".5"/><rect width="1" height="1" x="5" y="7" fill="currentColor" rx=".5"/><rect width="1" height="1" x="5" y="1" fill="currentColor" rx=".5"/><rect width="1" height="1" x="3" y="7" fill="currentColor" rx=".5"/><rect width="1" height="1" x="3" y="1" fill="currentColor" rx=".5"/><rect width="1" height="1" x="9" y="7" fill="currentColor" rx=".5"/><rect width="1" height="1" x="9" y="1" fill="currentColor" rx=".5"/><rect width="1" height="1" x="11" y="7" fill="currentColor" rx=".5"/><rect width="1" height="1" x="11" y="1" fill="currentColor" rx=".5"/><rect width="1" height="1" x="7" y="9" fill="currentColor" rx=".5"/><rect width="1" height="1" x="13" y="9" fill="currentColor" rx=".5"/><rect width="1" height="1" x="7" y="11" fill="currentColor" rx=".5"/><rect width="1" height="1" x="13" y="11" fill="currentColor" rx=".5"/><rect width="1" height="1" x="1" y="5" fill="currentColor" rx=".5"/><rect width="1" height="1" x="1" y="3" fill="currentColor" rx=".5"/><rect width="1" height="1" x="1" y="7" fill="currentColor" rx=".5"/><rect width="1" height="1" x="1" y="1" fill="currentColor" rx=".5"/><rect width="1" height="1" x="1" y="9" fill="currentColor" rx=".5"/><rect width="1" height="1" x="1" y="11" fill="currentColor" rx=".5"/></svg>