<svg xmlns="http://www.w3.org/2000/svg" width="15" height="15" fill="none"><path fill="currentColor" fill-rule="evenodd" d="M.25 1A.75.75 0 0 1 1 .25h13a.75.75 0 0 1 .75.75v13a.75.75 0 0 1-.75.75H1A.75.75 0 0 1 .25 14zm1.5.75v11.5h11.5V1.75z" clip-rule="evenodd"/><rect width="1" height="1" x="7" y="5" fill="currentColor" rx=".5"/><rect width="1" height="1" x="7" y="3" fill="currentColor" rx=".5"/><rect width="1" height="1" x="7" y="7" fill="currentColor" rx=".5"/><rect width="1" height="1" x="5" y="7" fill="currentColor" rx=".5"/><rect width="1" height="1" x="3" y="7" fill="currentColor" rx=".5"/><rect width="1" height="1" x="9" y="7" fill="currentColor" rx=".5"/><rect width="1" height="1" x="11" y="7" fill="currentColor" rx=".5"/><rect width="1" height="1" x="7" y="9" fill="currentColor" rx=".5"/><rect width="1" height="1" x="7" y="11" fill="currentColor" rx=".5"/></svg>